<svg width="56" height="56" viewBox="0 0 56 56" fill="none" xmlns="http://www.w3.org/2000/svg">
<rect width="55.4102" height="55.4102" rx="15" fill="url(#paint0_linear_415_1991)" fill-opacity="0.7"/>
<path d="M27.9999 36.4993C27.3028 36.4993 26.6252 36.2693 26.0722 35.845C25.5191 35.4206 25.1216 34.8256 24.9412 34.1523" stroke="#05AFF2" stroke-width="3.16667" stroke-linecap="round"/>
<path d="M25.5051 15.4073C26.5041 13.7089 27.0036 12.8598 27.7186 12.7307C27.9046 12.6971 28.0952 12.6971 28.2812 12.7307C28.9963 12.8598 29.4958 13.7089 30.4948 15.4073L33.1363 19.8978C34.9824 23.0362 36.4228 26.396 37.4231 29.897C39.0485 35.5861 34.7768 41.2493 28.86 41.2493H27.1399C21.2231 41.2493 16.9513 35.5861 18.5768 29.897C19.5771 26.396 21.0175 23.0362 22.8636 19.8978L25.5051 15.4073Z" stroke="#05AFF2" stroke-width="3.16667"/>
<defs>
<linearGradient id="paint0_linear_415_1991" x1="9.23503" y1="6.92627" x2="52.5242" y2="48.4839" gradientUnits="userSpaceOnUse">
<stop offset="0.134615" stop-color="#1772B6"/>
<stop offset="0.855769" stop-color="#480063"/>
</linearGradient>
</defs>
</svg>
