<svg width="56" height="56" viewBox="0 0 56 56" fill="none" xmlns="http://www.w3.org/2000/svg">
<rect width="55.4102" height="55.4102" rx="15" fill="url(#paint0_linear_415_1660)" fill-opacity="0.7"/>
<path d="M27.5186 12.7891L27.6836 12.8389C28.0449 12.9768 28.24 13.2652 28.3301 13.4668C28.4229 13.6746 28.4544 13.8886 28.4697 14.0312C28.5014 14.3262 28.5 14.7273 28.5 15.1455V23.5752H32.4951C33.1661 23.5752 33.7839 23.5724 34.2637 23.6436C34.7602 23.7173 35.3657 23.9044 35.7451 24.498C36.1246 25.0919 36.0402 25.7205 35.8984 26.2021C35.7615 26.6673 35.4996 27.2263 35.2178 27.835L29.3613 40.4854C29.1856 40.865 29.0179 41.2291 28.8652 41.4834C28.7913 41.6065 28.6736 41.7879 28.502 41.9375C28.3117 42.1033 27.9496 42.3139 27.4814 42.2109C27.013 42.1078 26.7729 41.7636 26.6699 41.5332C26.5771 41.3254 26.5456 41.1114 26.5303 40.9688C26.4986 40.6738 26.5 40.2727 26.5 39.8545V31.4248H22.5049C21.8339 31.4248 21.2161 31.4276 20.7363 31.3564C20.2398 31.2827 19.6343 31.0956 19.2549 30.502C18.8754 29.9081 18.9598 29.2795 19.1016 28.7979C19.2385 28.3327 19.5004 27.7737 19.7822 27.165L25.6387 14.5146C25.8144 14.135 25.9821 13.7709 26.1348 13.5166C26.2087 13.3935 26.3264 13.2121 26.498 13.0625C26.6646 12.9174 26.9629 12.7381 27.3486 12.7646L27.5186 12.7891Z" stroke="#05AFF2" stroke-width="2"/>
<defs>
<linearGradient id="paint0_linear_415_1660" x1="9.23503" y1="6.92627" x2="52.5242" y2="48.4839" gradientUnits="userSpaceOnUse">
<stop offset="0.134615" stop-color="#1772B6"/>
<stop offset="0.855769" stop-color="#480063"/>
</linearGradient>
</defs>
</svg>
