<svg width="56" height="56" viewBox="0 0 56 56" fill="none" xmlns="http://www.w3.org/2000/svg">
<rect width="55.4102" height="55.4102" rx="15" fill="url(#paint0_linear_1029_1787)" fill-opacity="0.7"/>
<path d="M16.0938 34.4286H19.1875L27.8307 42.4107C28.2432 42.7924 28.7717 43 29.3195 43C30.557 43 31.5625 41.9554 31.5625 40.6696V15.3304C31.5625 14.0446 30.557 13 29.3195 13C28.7717 13 28.2432 13.2076 27.8307 13.5893L19.1875 21.5714H16.0938C14.3857 21.5714 13 23.0112 13 24.7857V31.2143C13 32.9888 14.3857 34.4286 16.0938 34.4286ZM41.4303 18.0223C40.7664 17.4598 39.7932 17.567 39.2518 18.2567C38.7104 18.9464 38.8135 19.9576 39.4773 20.5201C41.5721 22.2879 42.9063 24.9799 42.9063 28C42.9063 31.0201 41.5721 33.7121 39.4773 35.4866C38.8135 36.0491 38.7168 37.0603 39.2518 37.75C39.7867 38.4397 40.7664 38.5402 41.4303 37.9844C44.2146 35.6272 46 32.0312 46 28.0067C46 23.9821 44.2146 20.3862 41.4303 18.029V18.0223ZM37.5309 23.0112C36.867 22.4487 35.8937 22.5558 35.3523 23.2455C34.8109 23.9353 34.9141 24.9464 35.5779 25.5089C36.274 26.0982 36.7188 26.9955 36.7188 28C36.7188 29.0045 36.274 29.9018 35.5779 30.4978C34.9141 31.0603 34.8174 32.0714 35.3523 32.7612C35.8873 33.4509 36.867 33.5513 37.5309 32.9955C38.9166 31.8103 39.8125 30.0156 39.8125 28C39.8125 25.9844 38.9166 24.1897 37.5244 23.0112H37.5309Z" fill="#05AFF2"/>
<defs>
<linearGradient id="paint0_linear_1029_1787" x1="9.23503" y1="6.92627" x2="52.5242" y2="48.4839" gradientUnits="userSpaceOnUse">
<stop offset="0.134615" stop-color="#1772B6"/>
<stop offset="0.855769" stop-color="#480063"/>
</linearGradient>
</defs>
</svg>
