<svg width="56" height="56" viewBox="0 0 56 56" fill="none" xmlns="http://www.w3.org/2000/svg">
<rect width="55.4102" height="55.4102" rx="15" fill="url(#paint0_linear_431_5066)" fill-opacity="0.7"/>
<path fill-rule="evenodd" clip-rule="evenodd" d="M12.375 27.5C12.375 19.1467 19.1467 12.375 27.5 12.375C35.8533 12.375 42.625 19.1467 42.625 27.5C42.625 35.8533 35.8533 42.625 27.5 42.625C19.1467 42.625 12.375 35.8533 12.375 27.5ZM27.5 15.125C20.6655 15.125 15.125 20.6655 15.125 27.5C15.125 34.3345 20.6655 39.875 27.5 39.875C34.3345 39.875 39.875 34.3345 39.875 27.5C39.875 20.6655 34.3345 15.125 27.5 15.125ZM17.875 27.5C17.875 22.1843 22.1843 17.875 27.5 17.875C28.2594 17.875 28.875 18.4906 28.875 19.25C28.875 20.0094 28.2594 20.625 27.5 20.625C23.7031 20.625 20.625 23.7031 20.625 27.5C20.625 28.2594 20.0094 28.875 19.25 28.875C18.4906 28.875 17.875 28.2594 17.875 27.5ZM23.375 27.5C23.375 25.2219 25.2219 23.375 27.5 23.375C29.7781 23.375 31.625 25.2219 31.625 27.5C31.625 29.7781 29.7781 31.625 27.5 31.625C25.2219 31.625 23.375 29.7781 23.375 27.5ZM27.5 26.125C26.7406 26.125 26.125 26.7406 26.125 27.5C26.125 28.2594 26.7406 28.875 27.5 28.875C28.2594 28.875 28.875 28.2594 28.875 27.5C28.875 26.7406 28.2594 26.125 27.5 26.125ZM35.75 26.125C36.5094 26.125 37.125 26.7406 37.125 27.5C37.125 32.8157 32.8157 37.125 27.5 37.125C26.7406 37.125 26.125 36.5094 26.125 35.75C26.125 34.9906 26.7406 34.375 27.5 34.375C31.2969 34.375 34.375 31.2969 34.375 27.5C34.375 26.7406 34.9906 26.125 35.75 26.125Z" fill="#05AFF2"/>
<defs>
<linearGradient id="paint0_linear_431_5066" x1="9.23503" y1="6.92627" x2="52.5242" y2="48.4839" gradientUnits="userSpaceOnUse">
<stop offset="0.134615" stop-color="#1772B6"/>
<stop offset="0.855769" stop-color="#480063"/>
</linearGradient>
</defs>
</svg>
