<svg width="56" height="56" viewBox="0 0 56 56" fill="none" xmlns="http://www.w3.org/2000/svg">
<rect width="55.4102" height="55.4102" rx="15" fill="url(#paint0_linear_431_5049)" fill-opacity="0.7"/>
<path fill-rule="evenodd" clip-rule="evenodd" d="M40.5312 30.25L40.5312 24.75C40.5312 24.5601 40.3773 24.4062 40.1875 24.4062L38.2625 24.4062C37.693 24.4062 37.2312 23.9445 37.2312 23.375L37.2312 22.2607C37.2312 21.59 36.7152 21.0321 36.0464 20.98L34.3023 20.844C29.5247 20.4714 24.7253 20.4714 19.9477 20.844L18.0948 20.9884C17.3759 21.0445 16.7876 21.583 16.6684 22.2942C16.0906 25.7406 16.0906 29.2593 16.6684 32.7057C16.7876 33.4169 17.3759 33.9554 18.0948 34.0115L19.9477 34.1559C24.7253 34.5285 29.5247 34.5285 34.3023 34.1559L36.0464 34.0199C36.7152 33.9678 37.2312 33.4099 37.2312 32.7392L37.2312 31.625C37.2312 31.0554 37.693 30.5937 38.2625 30.5937L40.1875 30.5937C40.3773 30.5937 40.5312 30.4398 40.5312 30.25ZM42.5937 24.75L42.5937 30.25C42.5937 31.5789 41.5164 32.6562 40.1875 32.6562L39.2937 32.6562L39.2937 32.7392C39.2937 34.4868 37.9492 35.9403 36.2068 36.0762L34.4626 36.2122C29.5783 36.593 24.6717 36.593 19.7874 36.2122L17.9345 36.0677C16.2712 35.938 14.9101 34.6921 14.6343 33.0467C14.0186 29.3745 14.0186 25.6254 14.6343 21.9532C14.9101 20.3078 16.2712 19.0619 17.9345 18.9322L19.7874 18.7877C24.6717 18.4069 29.5783 18.4069 34.4626 18.7877L36.2068 18.9237C37.9492 19.0596 39.2937 20.5131 39.2937 22.2607L39.2937 22.3437L40.1875 22.3437C41.5164 22.3437 42.5937 23.421 42.5937 24.75Z" fill="#05AFF2"/>
<defs>
<linearGradient id="paint0_linear_431_5049" x1="9.23503" y1="6.92627" x2="52.5242" y2="48.4839" gradientUnits="userSpaceOnUse">
<stop offset="0.134615" stop-color="#1772B6"/>
<stop offset="0.855769" stop-color="#480063"/>
</linearGradient>
</defs>
</svg>
