<svg width="56" height="56" viewBox="0 0 56 56" fill="none" xmlns="http://www.w3.org/2000/svg">
<rect width="55.4102" height="55.4102" rx="15" fill="url(#paint0_linear_454_9744)" fill-opacity="0.7"/>
<path fill-rule="evenodd" clip-rule="evenodd" d="M17.5282 19.1808C17.1133 18.7658 17.1133 18.0931 17.5282 17.6782C17.9432 17.2632 18.6159 17.2632 19.0308 17.6782L25.6459 24.2932L25.6459 13.689C25.6459 12.4269 27.1718 11.7949 28.0643 12.6873L34.2214 18.8444C34.7746 19.3977 34.7746 20.2946 34.2214 20.8479L28.1398 26.9295L34.2214 33.0111C34.7746 33.5643 34.7746 34.4613 34.2214 35.0145L28.0643 41.1717C27.1718 42.0641 25.6459 41.432 25.6459 40.1699V29.5658L19.0308 36.1808C18.6159 36.5957 17.9432 36.5957 17.5282 36.1808C17.1133 35.7658 17.1133 35.0931 17.5282 34.6782L25.2769 26.9295L17.5282 19.1808ZM27.7709 15.3991V24.2932L32.2179 19.8461L27.7709 15.3991ZM32.2179 34.0128L27.7709 29.5658L27.7709 38.4599L32.2179 34.0128Z" fill="#05AFF2"/>
<defs>
<linearGradient id="paint0_linear_454_9744" x1="9.23503" y1="6.92627" x2="52.5242" y2="48.4839" gradientUnits="userSpaceOnUse">
<stop offset="0.134615" stop-color="#1772B6"/>
<stop offset="0.855769" stop-color="#480063"/>
</linearGradient>
</defs>
</svg>
