<svg width="56" height="56" viewBox="0 0 56 56" fill="none" xmlns="http://www.w3.org/2000/svg">
<rect width="55.4102" height="55.4102" rx="15" fill="url(#paint0_linear_454_9673)" fill-opacity="0.7"/>
<path fill-rule="evenodd" clip-rule="evenodd" d="M40.5312 30.2501L40.5312 24.7501C40.5312 24.5602 40.3773 24.4063 40.1875 24.4063L38.2625 24.4063C37.693 24.4063 37.2312 23.9446 37.2312 23.3751L37.2312 22.2609C37.2312 21.5901 36.7152 21.0322 36.0464 20.9801L34.3023 20.8441C29.5247 20.4716 24.7253 20.4716 19.9477 20.8441L18.0948 20.9886C17.3759 21.0446 16.7876 21.5831 16.6684 22.2943C16.0906 25.7408 16.0906 29.2594 16.6684 32.7059C16.7876 33.417 17.3759 33.9555 18.0948 34.0116L19.9477 34.1561C24.7253 34.5286 29.5247 34.5286 34.3023 34.1561L36.0464 34.0201C36.7152 33.9679 37.2312 33.4101 37.2312 32.7393L37.2312 31.6251C37.2312 31.0555 37.693 30.5938 38.2625 30.5938L40.1875 30.5938C40.3773 30.5938 40.5312 30.4399 40.5312 30.2501ZM42.5937 24.7501L42.5937 30.2501C42.5937 31.579 41.5164 32.6563 40.1875 32.6563L39.2937 32.6563L39.2937 32.7393C39.2937 34.487 37.9492 35.9405 36.2068 36.0763L34.4626 36.2123C29.5783 36.5932 24.6717 36.5932 19.7874 36.2123L17.9345 36.0678C16.2712 35.9382 14.9101 34.6922 14.6343 33.0469C14.0186 29.3746 14.0186 25.6255 14.6343 21.9533C14.9101 20.3079 16.2712 19.062 17.9345 18.9323L19.7874 18.7878C24.6717 18.407 29.5783 18.407 34.4626 18.7878L36.2068 18.9238C37.9492 19.0597 39.2937 20.5132 39.2937 22.2609L39.2937 22.3438L40.1875 22.3438C41.5164 22.3438 42.5937 23.4211 42.5937 24.7501Z" fill="#05AFF2"/>
<defs>
<linearGradient id="paint0_linear_454_9673" x1="9.23503" y1="6.92627" x2="52.5242" y2="48.4839" gradientUnits="userSpaceOnUse">
<stop offset="0.134615" stop-color="#1772B6"/>
<stop offset="0.855769" stop-color="#480063"/>
</linearGradient>
</defs>
</svg>
