<svg width="56" height="56" viewBox="0 0 56 56" fill="none" xmlns="http://www.w3.org/2000/svg">
<rect width="55.4102" height="55.4102" rx="15" fill="url(#paint0_linear_431_4038)" fill-opacity="0.7"/>
<path d="M19.75 30.416H37.25C39.6662 30.416 41.625 32.3748 41.625 34.791C41.625 37.2073 39.6662 39.166 37.25 39.166H19.75C17.3338 39.166 15.375 37.2073 15.375 34.791C15.375 32.3748 17.3338 30.416 19.75 30.416Z" stroke="#05AFF2" stroke-width="2"/>
<path d="M15.375 34.7923C15.375 32.5734 17.9072 22.7579 19.1187 18.1887C19.3401 17.3536 19.4508 16.9361 19.6929 16.6194C19.9054 16.3414 20.1919 16.121 20.515 15.9868C20.8832 15.834 21.3202 15.834 22.1941 15.834H34.8059C35.6798 15.834 36.1168 15.834 36.485 15.9868C36.8081 16.121 37.0946 16.3414 37.3071 16.6194C37.5492 16.9361 37.6599 17.3536 37.8813 18.1887C39.0928 22.7579 41.625 32.5734 41.625 34.7923" stroke="#05AFF2" stroke-width="2"/>
<rect x="35.7915" y="33.334" width="2.91667" height="2.91667" rx="1.45833" fill="#05AFF2"/>
<rect x="18.2915" y="33.334" width="5.83333" height="2.91667" rx="1.45833" fill="#05AFF2"/>
<defs>
<linearGradient id="paint0_linear_431_4038" x1="9.23503" y1="6.92627" x2="52.5242" y2="48.4839" gradientUnits="userSpaceOnUse">
<stop offset="0.134615" stop-color="#1772B6"/>
<stop offset="0.855769" stop-color="#480063"/>
</linearGradient>
</defs>
</svg>
