<svg width="56" height="56" viewBox="0 0 56 56" fill="none" xmlns="http://www.w3.org/2000/svg">
<rect width="55.4102" height="55.4102" rx="15" fill="url(#paint0_linear_431_3086)" fill-opacity="0.7"/>
<path d="M25.7827 15.4336L25.7827 13.9553H25.7827V15.4336ZM28.7388 18.3896H30.217V18.3894L28.7388 18.3896ZM28.7388 31.0078H27.2605C27.2605 31.5354 27.5417 32.0231 27.9984 32.2873L28.7388 31.0078ZM31.6958 36.1279L33.1741 36.1279V36.1279H31.6958ZM25.7827 42.041V43.5193H25.7827L25.7827 42.041ZM19.8696 36.1279H18.3914V36.1279L19.8696 36.1279ZM22.8267 31.0078L23.567 32.2873C24.0237 32.0231 24.3049 31.5355 24.3049 31.0078H22.8267ZM22.8267 18.3896L21.3484 18.3894V18.3896H22.8267ZM25.7827 15.4336L25.7827 16.9119C26.5988 16.9119 27.2604 17.5733 27.2605 18.3899L28.7388 18.3896L30.217 18.3894C30.2167 15.9408 28.232 13.9554 25.7827 13.9553L25.7827 15.4336ZM28.7388 18.3896H27.2605V31.0078H28.7388H30.217V18.3896H28.7388ZM28.7388 31.0078L27.9984 32.2873C29.3285 33.0569 30.2175 34.4894 30.2175 36.1279H31.6958H33.1741C33.1741 33.3896 31.6833 31.0037 29.4791 29.7283L28.7388 31.0078ZM31.6958 36.1279L30.2175 36.1279C30.2175 38.5772 28.2319 40.5627 25.7827 40.5628L25.7827 42.041L25.7827 43.5193C29.8648 43.5192 33.174 40.21 33.1741 36.1279L31.6958 36.1279ZM25.7827 42.041V40.5628C23.3335 40.5628 21.3479 38.5772 21.3479 36.1279L19.8696 36.1279L18.3914 36.1279C18.3914 40.21 21.7006 43.5193 25.7827 43.5193V42.041ZM19.8696 36.1279H21.3479C21.3479 34.4893 22.2369 33.0569 23.567 32.2873L22.8267 31.0078L22.0863 29.7283C19.882 31.0037 18.3914 33.3896 18.3914 36.1279H19.8696ZM22.8267 31.0078H24.3049V18.3896H22.8267H21.3484V31.0078H22.8267ZM22.8267 18.3896L24.3049 18.3899C24.305 17.5733 24.9667 16.9119 25.7827 16.9119V15.4336V13.9553C23.3334 13.9553 21.3488 15.9408 21.3484 18.3894L22.8267 18.3896Z" fill="#05AFF2"/>
<path d="M33.1738 27.2598H36.1303" stroke="#05AFF2" stroke-width="2.95652" stroke-linecap="round" stroke-linejoin="round"/>
<path d="M33.1738 22.8262H36.1303" stroke="#05AFF2" stroke-width="2.95652" stroke-linecap="round" stroke-linejoin="round"/>
<path d="M33.1738 18.3909H39.0869" stroke="#05AFF2" stroke-width="2.95652" stroke-linecap="round" stroke-linejoin="round"/>
<circle cx="25.7827" cy="36.1306" r="1.47826" fill="#05AFF2"/>
<defs>
<linearGradient id="paint0_linear_431_3086" x1="9.23503" y1="6.92627" x2="52.5242" y2="48.4839" gradientUnits="userSpaceOnUse">
<stop offset="0.134615" stop-color="#1772B6"/>
<stop offset="0.855769" stop-color="#480063"/>
</linearGradient>
</defs>
</svg>
